<svg width="451" height="821" viewBox="0 0 451 821" fill="none" xmlns="http://www.w3.org/2000/svg">
<path fill-rule="evenodd" clip-rule="evenodd" d="M19.403 82.7056C12.8113 82.722 6.57934 82.7376 0.800903 82.7376V0.571334C6.24752 0.571334 12.2332 0.555978 18.6502 0.539514C48.8406 0.462062 88.5767 0.36012 126.628 1.71764C149.751 2.54261 172.933 3.92474 193.571 6.27575C213.441 8.53937 233.909 11.9996 250.031 18.0673C280.972 29.7126 316.919 51.0817 343.128 87.8109C369.935 125.377 383.942 175.398 376.176 238.721C367.792 307.084 329.808 354.692 281.824 384.019C257.04 399.167 229.664 409.471 202.053 415.811C220.738 442.747 243.587 475.461 268.04 510.471C278.844 525.941 289.962 541.858 301.171 557.924C359.86 642.034 421.062 730.178 450.801 776.139L381.817 820.775C353.045 776.311 292.836 689.568 233.787 604.941C222.757 589.133 211.765 573.396 201.041 558.042C154.801 491.839 113.523 432.741 95.4712 405.619L52.9755 341.772H129.671C167.888 341.772 208.106 332.777 238.975 313.911C268.626 295.788 289.702 268.829 294.621 228.719C300.158 183.569 289.87 154.633 276.245 135.538C262.022 115.607 241.397 102.611 221.088 94.9673C214.852 92.6201 202.713 90.0149 184.27 87.9139C166.595 85.9003 145.758 84.6186 123.698 83.8316C87.3915 82.5363 49.6176 82.6304 19.403 82.7056Z" fill="#252E30"/>
</svg>
