<svg width="125" height="24" viewBox="0 0 125 24" fill="none" xmlns="http://www.w3.org/2000/svg">
<path d="M65.8855 4.82898C65.8307 3.42322 65.7694 1.98979 65.7036 0.528679C65.9911 0.57328 66.2676 0.611973 66.5333 0.644753C66.799 0.67807 67.0648 0.694725 67.3305 0.694725C67.5962 0.694725 67.862 0.67807 68.1277 0.644753C68.3923 0.611973 68.6699 0.57328 68.9571 0.528679C68.8905 1.98979 68.8292 3.42322 68.7744 4.82898C68.7193 6.23501 68.6914 7.66817 68.6914 9.129C68.6914 11.9182 68.7024 14.3375 68.7247 16.3843C68.7465 18.4322 68.769 20.2644 68.7913 21.88C70.3634 21.88 71.8686 21.8636 73.3069 21.8303C74.7465 21.797 76.2957 21.6701 77.9559 21.4485C77.8449 21.8469 77.7901 22.179 77.7901 22.4448C77.7901 22.6885 77.8449 22.9875 77.9559 23.3408C76.9379 23.2962 75.9193 23.2747 74.9012 23.2747C73.8826 23.2747 72.8638 23.2747 71.846 23.2747C70.7839 23.2747 69.7597 23.2747 68.7744 23.2747C67.7897 23.2747 66.7657 23.2962 65.7036 23.3408C65.7694 21.9686 65.8307 20.5742 65.8855 19.1574C65.9406 17.7409 65.9685 16.3015 65.9685 14.8404V9.129C65.9685 7.66817 65.9406 6.23501 65.8855 4.82898Z" fill="black"/>
<mask id="mask0_140_263" style="mask-type:luminance" maskUnits="userSpaceOnUse" x="65" y="0" width="13" height="24">
<path d="M65.8855 4.82898C65.8307 3.42322 65.7694 1.98979 65.7036 0.528679C65.9911 0.57328 66.2676 0.611973 66.5333 0.644753C66.799 0.67807 67.0648 0.694725 67.3305 0.694725C67.5962 0.694725 67.862 0.67807 68.1277 0.644753C68.3923 0.611973 68.6699 0.57328 68.9571 0.528679C68.8905 1.98979 68.8292 3.42322 68.7744 4.82898C68.7193 6.23501 68.6914 7.66817 68.6914 9.129C68.6914 11.9182 68.7024 14.3375 68.7247 16.3843C68.7465 18.4322 68.769 20.2644 68.7913 21.88C70.3634 21.88 71.8686 21.8636 73.3069 21.8303C74.7465 21.797 76.2957 21.6701 77.9559 21.4485C77.8449 21.8469 77.7901 22.179 77.7901 22.4448C77.7901 22.6885 77.8449 22.9875 77.9559 23.3408C76.9379 23.2962 75.9193 23.2747 74.9012 23.2747C73.8826 23.2747 72.8638 23.2747 71.846 23.2747C70.7839 23.2747 69.7597 23.2747 68.7744 23.2747C67.7897 23.2747 66.7657 23.2962 65.7036 23.3408C65.7694 21.9686 65.8307 20.5742 65.8855 19.1574C65.9406 17.7409 65.9685 16.3015 65.9685 14.8404V9.129C65.9685 7.66817 65.9406 6.23501 65.8855 4.82898Z" fill="white"/>
</mask>
<g mask="url(#mask0_140_263)">
<path d="M200.954 28.6323H-109.85V-100.371H200.954V28.6323Z" fill="black"/>
</g>
<path d="M91.0726 14.0105C90.8509 13.6343 90.5239 13.0862 90.0924 12.3664C89.6609 11.6477 89.1845 10.8505 88.6649 9.9759C88.1442 9.1016 87.5963 8.18297 87.0208 7.22001C86.4453 6.2565 85.8977 5.33813 85.3778 4.46357C84.8573 3.58953 84.3861 2.80336 83.9664 2.10586C83.5456 1.40862 83.224 0.883074 83.0034 0.528679C83.3132 0.57328 83.6176 0.611973 83.9169 0.644753C84.2149 0.67807 84.5193 0.694725 84.8294 0.694725C85.1392 0.694725 85.4436 0.67807 85.7427 0.644753C86.0417 0.611973 86.3453 0.57328 86.6559 0.528679C87.6522 2.45488 88.6649 4.34749 89.6942 6.20706C90.7238 8.06663 91.8139 10.0038 92.9649 12.0179C93.4741 11.2213 94.0052 10.347 94.5585 9.39474C95.1114 8.44306 95.6655 7.46854 96.2195 6.47279C96.7724 5.47651 97.3031 4.47485 97.8128 3.46728C98.3219 2.46025 98.7975 1.48063 99.2406 0.528679C99.7938 0.639915 100.226 0.694725 100.536 0.694725C100.846 0.694725 101.277 0.639915 101.831 0.528679C100.768 2.14509 99.8161 3.60619 98.9748 4.91173C98.1336 6.21834 97.3923 7.40244 96.7501 8.46482C96.1077 9.52773 95.544 10.4853 95.0566 11.3373C94.57 12.1899 94.1487 12.9591 93.7954 13.6451C93.7954 14.4643 93.8 15.3386 93.8118 16.2682C93.8225 17.1982 93.8397 18.1111 93.8612 19.0077C93.883 19.9046 93.9117 20.7346 93.9443 21.4984C93.9776 22.2618 94.0163 22.876 94.0603 23.3408C93.5514 23.2962 93.0092 23.2747 92.4334 23.2747C91.8579 23.2747 91.3157 23.2962 90.8068 23.3408C90.9393 22.1903 91.0167 20.7958 91.0392 19.1574C91.0607 17.5192 91.0726 15.8034 91.0726 14.0105Z" fill="black"/>
<mask id="mask1_140_263" style="mask-type:luminance" maskUnits="userSpaceOnUse" x="83" y="0" width="19" height="24">
<path d="M91.0726 14.0105C90.8509 13.6343 90.5239 13.0862 90.0924 12.3664C89.6609 11.6477 89.1845 10.8505 88.6649 9.9759C88.1442 9.1016 87.5963 8.18297 87.0208 7.22001C86.4453 6.2565 85.8977 5.33813 85.3778 4.46357C84.8573 3.58953 84.3861 2.80336 83.9664 2.10586C83.5456 1.40862 83.224 0.883074 83.0034 0.528679C83.3132 0.57328 83.6176 0.611973 83.9169 0.644753C84.2149 0.67807 84.5193 0.694725 84.8294 0.694725C85.1392 0.694725 85.4436 0.67807 85.7427 0.644753C86.0417 0.611973 86.3453 0.57328 86.6559 0.528679C87.6522 2.45488 88.6649 4.34749 89.6942 6.20706C90.7238 8.06663 91.8139 10.0038 92.9649 12.0179C93.4741 11.2213 94.0052 10.347 94.5585 9.39474C95.1114 8.44306 95.6655 7.46854 96.2195 6.47279C96.7724 5.47651 97.3031 4.47485 97.8128 3.46728C98.3219 2.46025 98.7975 1.48063 99.2406 0.528679C99.7938 0.639915 100.226 0.694725 100.536 0.694725C100.846 0.694725 101.277 0.639915 101.831 0.528679C100.768 2.14509 99.8161 3.60619 98.9748 4.91173C98.1336 6.21834 97.3923 7.40244 96.7501 8.46482C96.1077 9.52773 95.544 10.4853 95.0566 11.3373C94.57 12.1899 94.1487 12.9591 93.7954 13.6451C93.7954 14.4643 93.8 15.3386 93.8118 16.2682C93.8225 17.1982 93.8397 18.1111 93.8612 19.0077C93.883 19.9046 93.9117 20.7346 93.9443 21.4984C93.9776 22.2618 94.0163 22.876 94.0603 23.3408C93.5514 23.2962 93.0092 23.2747 92.4334 23.2747C91.8579 23.2747 91.3157 23.2962 90.8068 23.3408C90.9393 22.1903 91.0167 20.7958 91.0392 19.1574C91.0607 17.5192 91.0726 15.8034 91.0726 14.0105Z" fill="white"/>
</mask>
<g mask="url(#mask1_140_263)">
<path d="M200.954 28.6323H-109.851V-100.371H200.954V28.6323Z" fill="black"/>
</g>
<path d="M112.374 4.82898C112.318 3.42322 112.258 1.98979 112.191 0.528679C113.187 0.57328 114.178 0.611973 115.163 0.644753C116.148 0.67807 117.139 0.694725 118.135 0.694725C119.131 0.694725 120.138 0.67807 121.156 0.644753C122.174 0.611973 123.282 0.57328 124.477 0.528679C124.411 0.861042 124.377 1.19286 124.377 1.52496C124.377 1.85678 124.411 2.18915 124.477 2.52097C123.879 2.45488 123.159 2.39415 122.319 2.33827C121.477 2.28319 120.619 2.23859 119.746 2.20581C118.87 2.17249 118.03 2.14509 117.222 2.12252C116.413 2.10102 115.743 2.08973 115.213 2.08973C115.191 2.86462 115.173 3.60619 115.163 4.31418C115.152 5.02297 115.146 5.73095 115.146 6.43947C115.146 7.21463 115.152 7.92852 115.163 8.58089C115.173 9.2346 115.18 9.91491 115.18 10.6234C116.641 10.6234 118.085 10.6014 119.513 10.5568C120.941 10.5127 122.351 10.4241 123.747 10.2911C123.658 10.6234 123.614 10.9555 123.614 11.2874C123.614 11.6192 123.658 11.9515 123.747 12.2836C123.193 12.2173 122.568 12.1673 121.871 12.134C121.173 12.1012 120.447 12.0733 119.695 12.0512C118.942 12.0295 118.179 12.0179 117.404 12.0179C116.629 12.0179 115.888 12.0179 115.18 12.0179V14.8404C115.18 16.3015 115.207 17.7409 115.263 19.1574C115.318 20.5742 115.379 21.9686 115.445 23.3408C114.936 23.2962 114.393 23.2747 113.818 23.2747C113.242 23.2747 112.7 23.2962 112.191 23.3408C112.258 21.9686 112.318 20.5742 112.374 19.1574C112.429 17.7409 112.457 16.3015 112.457 14.8404V9.129C112.457 7.66817 112.429 6.23501 112.374 4.82898Z" fill="black"/>
<mask id="mask2_140_263" style="mask-type:luminance" maskUnits="userSpaceOnUse" x="112" y="0" width="13" height="24">
<path d="M112.374 4.82898C112.318 3.42322 112.258 1.98979 112.191 0.528679C113.187 0.57328 114.178 0.611973 115.163 0.644753C116.148 0.67807 117.139 0.694725 118.135 0.694725C119.131 0.694725 120.138 0.67807 121.156 0.644753C122.174 0.611973 123.282 0.57328 124.477 0.528679C124.411 0.861042 124.377 1.19286 124.377 1.52496C124.377 1.85678 124.411 2.18915 124.477 2.52097C123.879 2.45488 123.159 2.39415 122.319 2.33827C121.477 2.28319 120.619 2.23859 119.746 2.20581C118.87 2.17249 118.03 2.14509 117.222 2.12252C116.413 2.10102 115.743 2.08973 115.213 2.08973C115.191 2.86462 115.173 3.60619 115.163 4.31418C115.152 5.02297 115.146 5.73095 115.146 6.43947C115.146 7.21463 115.152 7.92852 115.163 8.58089C115.173 9.2346 115.18 9.91491 115.18 10.6234C116.641 10.6234 118.085 10.6014 119.513 10.5568C120.941 10.5127 122.351 10.4241 123.747 10.2911C123.658 10.6234 123.614 10.9555 123.614 11.2874C123.614 11.6192 123.658 11.9515 123.747 12.2836C123.193 12.2173 122.568 12.1673 121.871 12.134C121.173 12.1012 120.447 12.0733 119.695 12.0512C118.942 12.0295 118.179 12.0179 117.404 12.0179C116.629 12.0179 115.888 12.0179 115.18 12.0179V14.8404C115.18 16.3015 115.207 17.7409 115.263 19.1574C115.318 20.5742 115.379 21.9686 115.445 23.3408C114.936 23.2962 114.393 23.2747 113.818 23.2747C113.242 23.2747 112.7 23.2962 112.191 23.3408C112.258 21.9686 112.318 20.5742 112.374 19.1574C112.429 17.7409 112.457 16.3015 112.457 14.8404V9.129C112.457 7.66817 112.429 6.23501 112.374 4.82898Z" fill="white"/>
</mask>
<g mask="url(#mask2_140_263)">
<path d="M200.954 28.6323H-109.851V-100.371H200.954V28.6323Z" fill="black"/>
</g>
<path d="M40.8877 12.8081L44.4185 4.57991L48.3383 13.9817C48.0876 13.817 47.8184 13.6593 47.5177 13.5051C45.6375 12.541 43.129 12.3446 40.8877 12.8081ZM54.3963 21.0164C53.9425 19.9987 53.4334 18.8417 52.8697 17.5466C52.3049 16.2518 51.7014 14.8517 51.0601 13.346C50.4168 11.8408 49.7755 10.3244 49.1333 8.79718C48.4909 7.26944 47.8603 5.75836 47.2407 4.26447C46.6209 2.77005 46.0456 1.38121 45.5142 0.097168H44.8833C43.1564 4.06 41.4409 7.95593 39.7361 11.7855C38.0315 15.6156 36.2832 19.4677 34.4897 23.3408C34.8662 23.2962 35.2756 23.2747 35.7184 23.2747C36.161 23.2747 36.5704 23.2962 36.9469 23.3408C37.2344 22.323 37.6661 21.0331 38.2422 19.4726C38.8175 17.912 39.4593 16.2682 40.1681 14.5419L40.5497 13.6179C42.7169 13.1004 44.732 13.3057 46.59 14.2582C47.5481 14.7494 48.3807 15.3603 49.089 16.0893C49.1532 16.1556 49.2078 16.2193 49.269 16.2849C49.3459 16.4732 49.4195 16.6567 49.499 16.8497C49.8314 17.6576 50.1573 18.4548 50.4781 19.2402C50.7986 20.0261 51.0923 20.7792 51.358 21.4984C51.6238 22.2177 51.8347 22.8319 51.9895 23.3408C52.2995 23.2962 52.5921 23.2747 52.8697 23.2747C53.1461 23.2747 53.4387 23.2747 53.7496 23.2747C54.0586 23.2747 54.3523 23.2747 54.6287 23.2747C54.9052 23.2747 55.1989 23.2962 55.509 23.3408C55.2215 22.8099 54.8504 22.0353 54.3963 21.0164Z" fill="black"/>
<mask id="mask3_140_263" style="mask-type:luminance" maskUnits="userSpaceOnUse" x="34" y="0" width="22" height="24">
<path d="M40.8877 12.8081L44.4185 4.57991L48.3383 13.9817C48.0876 13.817 47.8184 13.6593 47.5177 13.5051C45.6375 12.541 43.129 12.3446 40.8877 12.8081ZM54.3963 21.0164C53.9425 19.9987 53.4334 18.8417 52.8697 17.5466C52.3049 16.2518 51.7014 14.8517 51.0601 13.346C50.4168 11.8408 49.7755 10.3244 49.1333 8.79718C48.4909 7.26944 47.8603 5.75836 47.2407 4.26447C46.6209 2.77005 46.0456 1.38121 45.5142 0.097168H44.8833C43.1564 4.06 41.4409 7.95593 39.7361 11.7855C38.0315 15.6156 36.2832 19.4677 34.4897 23.3408C34.8662 23.2962 35.2756 23.2747 35.7184 23.2747C36.161 23.2747 36.5704 23.2962 36.9469 23.3408C37.2344 22.323 37.6661 21.0331 38.2422 19.4726C38.8175 17.912 39.4593 16.2682 40.1681 14.5419L40.5497 13.6179C42.7169 13.1004 44.732 13.3057 46.59 14.2582C47.5481 14.7494 48.3807 15.3603 49.089 16.0893C49.1532 16.1556 49.2078 16.2193 49.269 16.2849C49.3459 16.4732 49.4195 16.6567 49.499 16.8497C49.8314 17.6576 50.1573 18.4548 50.4781 19.2402C50.7986 20.0261 51.0923 20.7792 51.358 21.4984C51.6238 22.2177 51.8347 22.8319 51.9895 23.3408C52.2995 23.2962 52.5921 23.2747 52.8697 23.2747C53.1461 23.2747 53.4387 23.2747 53.7496 23.2747C54.0586 23.2747 54.3523 23.2747 54.6287 23.2747C54.9052 23.2747 55.1989 23.2962 55.509 23.3408C55.2215 22.8099 54.8504 22.0353 54.3963 21.0164Z" fill="white"/>
</mask>
<g mask="url(#mask3_140_263)">
<path d="M200.954 28.6323H-109.85V-100.371H200.954V28.6323Z" fill="black"/>
</g>
<path d="M25.8475 9.93755V6.86837L12.9308 -2.47955e-05L0 6.86837V9.98242L12.9474 3.10544L25.8475 9.93755Z" fill="black"/>
<mask id="mask4_140_263" style="mask-type:luminance" maskUnits="userSpaceOnUse" x="0" y="0" width="26" height="10">
<path d="M25.8475 9.93755V6.86837L12.9308 -2.47955e-05L0 6.86837V9.98242L12.9474 3.10544L25.8475 9.93755Z" fill="white"/>
</mask>
<g mask="url(#mask4_140_263)">
<path d="M200.954 28.6323H-109.851V-100.371H200.954V28.6323Z" fill="black"/>
</g>
<path d="M25.8475 22.3989V19.3219L9.9998 10.8898L12.945 9.33574L25.8475 16.1775V13.1081L12.931 6.23163L0 13.0976V16.2025L7.06579 12.4538L25.8475 22.3989Z" fill="black"/>
<mask id="mask5_140_263" style="mask-type:luminance" maskUnits="userSpaceOnUse" x="0" y="6" width="26" height="17">
<path d="M25.8475 22.3989V19.3219L9.9998 10.8898L12.945 9.33574L25.8475 16.1775V13.1081L12.931 6.23163L0 13.0976V16.2025L7.06579 12.4538L25.8475 22.3989Z" fill="white"/>
</mask>
<g mask="url(#mask5_140_263)">
<path d="M200.954 28.6323H-109.851V-100.371H200.954V28.6323Z" fill="black"/>
</g>
<path d="M12.9358 21.7774L17.1469 24H22.9868L7.05727 15.552L0 19.3123V22.4096L7.06074 18.6674L9.98564 20.218L2.86904 24H8.73204L12.9358 21.7774Z" fill="black"/>
<mask id="mask6_140_263" style="mask-type:luminance" maskUnits="userSpaceOnUse" x="0" y="15" width="23" height="9">
<path d="M12.9358 21.7774L17.1469 24H22.9868L7.05727 15.552L0 19.3123V22.4096L7.06074 18.6674L9.98564 20.218L2.86904 24H8.73204L12.9358 21.7774Z" fill="white"/>
</mask>
<g mask="url(#mask6_140_263)">
<path d="M200.954 28.6323H-109.851V-100.371H200.954V28.6323Z" fill="black"/>
</g>
</svg>
