<svg width="548" height="180" viewBox="0 0 548 180" fill="none" xmlns="http://www.w3.org/2000/svg">
<path d="M181.682 148.768C181.21 148.8 180.143 148.8 179.671 148.8H176.967V157.412H174.422V135.411H181.147C186.301 135.411 189.35 137.956 189.35 142.262C189.35 145.656 187.432 147.638 184.322 148.297L189.759 157.412H186.678L181.682 148.768ZM181.4 146.663C184.607 146.663 186.744 145.532 186.744 142.357C186.744 139.182 184.67 137.769 181.244 137.769H176.97V146.663H181.402H181.4Z" fill="#FFFCF9"/>
<path d="M205.885 151.567L203.434 157.412H200.699L210.065 135.411H212.861L222.226 157.412H219.491L217.04 151.567H205.883H205.885ZM213.649 143.49C212.8 141.479 211.511 138.367 211.48 138.336H211.417C211.385 138.367 210.096 141.479 209.279 143.458L206.86 149.243H216.07L213.651 143.49H213.649Z" fill="#FFFCF9"/>
<path d="M235.431 150.969C235.682 154.113 238.291 155.528 241.656 155.528C245.02 155.528 246.81 154.24 246.81 151.599C246.81 147.984 243.163 147.797 240.43 147.198C237.444 146.508 233.61 145.438 233.61 140.974C233.61 137.14 236.438 134.971 241.06 134.971C245.147 134.971 248.164 136.668 249.105 140.439L246.654 141.098C246.056 138.679 244.267 137.264 241.028 137.264C237.79 137.264 236.219 138.647 236.219 140.879C236.219 143.802 238.986 144.432 242.127 145.059C245.395 145.686 249.419 146.724 249.419 151.565C249.419 155.713 246.528 157.821 241.624 157.821C237.916 157.821 233.671 156.596 232.98 151.628L235.431 150.969Z" fill="#FFFCF9"/>
<path d="M282.077 151.567L279.626 157.412H276.891L286.256 135.411H289.052L298.418 157.412H295.682L293.232 151.567H282.074H282.077ZM289.84 143.49C288.991 141.48 287.703 138.367 287.671 138.336H287.608C287.576 138.367 286.288 141.48 285.471 143.459L283.052 149.243H292.262L289.842 143.49H289.84Z" fill="#FFFCF9"/>
<path d="M310.492 135.411H313.038V155.024H324.635V157.412H310.492V135.411Z" fill="#FFFCF9"/>
<path d="M356.413 150.089V157.412H353.867V135.411H356.413V147.008H356.476L360.06 143.206L367.383 135.411H370.464L362.197 144.212L371.312 157.443L368.295 157.412L360.313 146.033L356.415 150.089H356.413Z" fill="#FFFCF9"/>
<path d="M397.834 147.135H385.702V157.412H383.156V135.411H385.702V144.681H397.834V135.411H400.411V157.412H397.834V147.135Z" fill="#FFFCF9"/>
<path d="M417.608 151.567L415.157 157.412H412.422L421.787 135.411H424.586L433.951 157.412H431.216L428.765 151.567H417.608ZM425.371 143.49C424.523 141.479 423.234 138.367 423.202 138.336H423.139C423.108 138.367 421.819 141.479 421.002 143.458L418.583 149.243H427.793L425.374 143.49H425.371Z" fill="#FFFCF9"/>
<path d="M446.023 135.411H448.569V157.412H446.023V135.411Z" fill="#FFFCF9"/>
<path d="M480.124 147.511C480.124 144.117 480.219 139.59 480.219 139.559H480.156C480.124 139.59 479.275 141.35 477.296 144.871L473.273 152.007H471.733L467.741 144.966C465.699 141.35 464.882 139.59 464.85 139.559H464.787C464.787 139.59 464.85 144.115 464.85 147.511V157.412H462.305V135.411H465.008L472.49 148.8H472.553L480.066 135.411H482.706V157.412H480.129V147.511H480.124Z" fill="#FFFCF9"/>
<path d="M499.897 151.567L497.446 157.412H494.711L504.076 135.411H506.873L516.238 157.412H513.503L511.052 151.567H499.895H499.897ZM507.66 143.49C506.812 141.479 505.523 138.367 505.491 138.336H505.428C505.397 138.367 504.108 141.479 503.291 143.458L500.872 149.243H510.082L507.663 143.49H507.66Z" fill="#FFFCF9"/>
<path d="M542.99 147.135H530.858V157.412H528.312V135.411H530.858V144.681H542.99V135.411H545.568V157.412H542.99V147.135Z" fill="#FFFCF9"/>
<path d="M197.103 86.1328C195.686 86.2276 192.471 86.2276 191.054 86.2276H182.926V112.126H175.27V45.9622H195.498C211.001 45.9622 220.169 53.6185 220.169 66.5678C220.169 76.777 214.402 82.7314 205.046 84.7153L221.399 112.126H212.136L197.105 86.1328H197.103ZM196.252 79.7992C205.895 79.7992 212.321 76.3953 212.321 66.8498C212.321 57.3044 206.082 53.0495 195.778 53.0495H182.923V79.7992H196.252Z" fill="#FFFCF9"/>
<path d="M257.595 94.5453L250.223 112.126H242L270.17 45.9622H278.582L306.752 112.126H298.529L291.157 94.5453H257.6H257.595ZM280.943 70.2537C278.39 64.2045 274.514 54.8463 274.42 54.7515H274.23C274.135 54.8463 270.26 64.2045 267.801 70.1589L260.522 87.5503H288.217L280.938 70.2537H280.943Z" fill="#FFFCF9"/>
<path d="M338.418 58.3423H338.228C338.228 58.4371 338.418 65.9986 338.418 74.2214V112.124H330.762V45.9619H338.513L377.268 99.2715H377.458C377.458 99.1767 377.268 91.4256 377.268 83.7693V45.9595H385.02V112.124H377.174L338.418 58.3399V58.3423Z" fill="#FFFCF9"/>
<path d="M468.76 112.126C468.76 104.565 468.855 103.43 468.855 102.579H468.665C465.451 106.264 457.228 113.354 444.184 113.354C425.373 113.354 410.25 99.7436 410.25 78.9483C410.25 58.153 424.996 44.6372 444.469 44.6372C459.594 44.6372 470.37 52.86 474.527 62.6899L466.966 64.7687C464.792 60.7035 458.554 51.9142 444.279 51.9142C428.966 51.9142 418.001 62.3106 418.001 78.8535C418.001 95.3963 429.533 105.982 444.658 105.982C457.136 105.982 465.833 99.0823 468.478 94.1661V84.713H448.816V77.5284H475.66V112.124H468.76V112.126Z" fill="#FFFCF9"/>
<path d="M503.07 45.9622H547.591V53.1468H510.727V73.9421H539.463V81.1267H510.727V104.947H547.78V112.131H503.07V45.9622Z" fill="#FFFCF9"/>
<path d="M93.54 0.238272C92.6769 0.843676 91.7724 1.39559 90.9579 2.06178C88.9424 3.71023 86.9268 5.36111 84.9866 7.09709C82.0665 9.71079 79.2097 12.395 76.3407 15.067C76.0757 15.3126 75.9274 15.6822 75.7256 15.9958C76.083 16.0931 76.438 16.2754 76.7954 16.2754C93.0513 16.2851 109.31 16.2754 125.566 16.2754C126.93 16.2754 128.291 16.307 129.655 16.2973C130.453 16.2924 130.8 16.5623 130.742 17.4425C130.584 19.7936 130.53 22.152 130.402 24.5055C130.368 25.1133 130.462 25.4732 131.141 25.6969C134.248 26.718 137.331 27.8073 140.426 28.8698C142.658 29.6356 144.863 30.4939 147.132 31.1309C149.692 31.8482 152.318 32.3247 154.895 32.9787C157.749 33.7033 160.582 34.5105 163.424 35.2812C163.412 35.376 163.397 35.4733 163.385 35.5681C162.658 35.5681 161.931 35.5997 161.207 35.5608C159.561 35.4782 157.917 35.3007 156.271 35.2666C148.133 35.0964 139.996 34.9554 131.858 34.812C130.334 34.7852 130.331 34.8023 130.334 36.3437C130.338 40.6156 130.36 44.885 130.334 49.1569C130.329 50.0395 130.355 50.8078 131.593 51.1166C130.134 51.581 130.351 52.6751 130.351 53.6889C130.351 92.4494 130.351 131.212 130.355 169.973C130.355 172.484 130.385 174.996 130.394 177.51C130.399 179.081 130.394 179.081 128.807 179.081C101.639 179.081 74.4734 179.085 47.3056 179.083C32.2677 179.083 17.2323 179.064 2.19445 179.095C1.1125 179.095 0.764822 178.816 0.781841 177.719C0.842625 173.413 0.825605 169.107 0.825605 164.799C0.825605 118.068 0.825605 71.3405 0.825605 24.6101C0.825605 22.3854 0.779409 20.1607 0.808585 17.936C0.825604 16.4845 0.990936 16.3727 2.44731 16.3702C21.4312 16.3435 40.4152 16.3095 59.3991 16.3095C60.6318 16.3095 61.6068 15.9399 62.5209 15.1473C67.7532 10.6031 73.7246 7.26242 80.1239 4.70465C84.2912 3.03918 88.5655 1.63873 92.7936 0.123999C92.9881 0.0534896 93.2021 0.0389015 93.4063 0C93.4501 0.0802343 93.4938 0.1629 93.5376 0.243134L93.54 0.238272ZM67.4323 98.1315C67.2378 98.5132 67.1818 98.7174 67.0554 98.8536C63.9287 102.187 60.977 105.71 57.6169 108.786C53.576 112.486 49.0951 115.688 45.132 119.515C40.3811 124.103 36.3573 129.121 34.3344 135.511C33.5053 138.134 32.9412 140.85 31.9663 143.415C30.5974 147.016 29 150.537 27.4026 154.045C26.9528 155.032 27.0306 155.764 27.5996 156.627C31.4168 162.416 35.7956 167.726 40.933 172.394C41.2005 172.638 41.4947 172.854 41.7767 173.082C41.8594 173.027 41.9445 172.971 42.0272 172.915C41.9007 172.494 41.8156 172.059 41.6406 171.658C39.9435 167.729 38.8008 163.62 38.3072 159.396C37.8428 155.421 37.8307 151.414 38.5625 147.415C39.1679 144.108 40.228 140.991 41.7305 138.015C43.5492 134.407 45.4286 130.831 47.2716 127.232C47.6752 126.444 48.0253 125.632 48.5334 124.546C48.5845 125.275 48.6307 125.664 48.6355 126.055C48.6963 130.463 48.6744 134.876 48.8276 139.282C49.0513 145.737 49.45 152.188 49.6835 158.643C49.8707 163.821 49.6202 168.971 47.9548 173.953C47.6095 174.989 47.8381 175.28 49.0294 175.288C52.5111 175.302 55.9928 175.302 59.4745 175.28C59.9 175.278 60.3254 175.12 60.8433 175.015C60.5759 174.415 60.4032 173.987 60.1966 173.578C57.2765 167.789 55.5017 161.633 54.8841 155.217C54.2082 148.21 54.6142 141.246 57.1914 134.568C58.9128 130.108 61.0986 125.914 64.0308 122.109C67.6049 117.473 71.8573 113.493 76.0246 109.425C76.3018 109.153 76.6155 108.917 76.9096 108.664C76.7297 109.143 76.4866 109.537 76.2362 109.928C73.9142 113.578 71.6798 117.293 70.3037 121.404C69.2679 124.499 68.592 127.711 67.741 130.869C66.839 134.222 66.4549 137.636 66.6372 141.101C66.9314 146.744 68.451 152.158 69.8247 157.595C70.5249 160.371 71.3346 163.121 71.9424 165.917C72.5429 168.677 72.966 171.473 73.4304 174.262C73.5374 174.906 73.8559 175.224 74.4734 175.266C74.9013 175.295 75.3341 175.295 75.7645 175.295C92.1663 175.3 108.568 175.302 124.97 175.31C126.84 175.31 126.881 175.3 126.876 173.382C126.862 167.459 126.815 161.536 126.813 155.616C126.801 136.304 126.794 116.994 126.798 97.6817C126.801 87.9198 126.832 78.1555 126.852 68.3937C126.862 63.7985 126.881 59.2056 126.879 54.6104C126.879 53.351 126.631 53.2853 125.478 53.5552C121.624 54.4597 117.754 55.2985 113.878 56.1105C112.66 56.3658 111.408 56.4704 110.17 56.6284C108.128 56.8886 106.091 57.2411 104.039 57.3724C100.168 57.618 96.3312 57.1001 92.4921 56.6503C88.2956 56.1567 84.0845 55.7945 79.8905 55.296C75.6551 54.7928 71.4343 54.1922 67.2062 53.6354C61.1545 52.838 55.0908 52.1961 48.9735 52.3225C44.2883 52.4173 39.9873 53.8786 36.6855 57.1512C33.8335 59.9764 31.5213 63.3487 28.9854 66.4924C28.7836 66.7428 28.7058 67.0929 28.5697 67.3968C28.6329 67.4625 28.6937 67.5281 28.7569 67.5913C29.0462 67.443 29.3623 67.3336 29.6249 67.144C37.5194 61.4571 46.4109 58.4325 56.0244 57.5766C60.9868 57.1341 65.9783 57.4138 70.8872 58.4179C75.0059 59.2616 78.9277 60.7593 82.6841 62.5852C89.2001 65.7508 95.186 69.8063 101.058 74.0271C101.753 74.5255 102.393 75.1042 103.059 75.644C100.219 74.7444 97.5226 73.6527 94.8213 72.5756C88.8208 70.188 82.9102 67.5233 76.3334 67.0078C73.0244 66.7477 69.7396 66.0839 66.4306 65.9696C62.6449 65.8384 58.8448 66.0718 55.0519 66.2274C51.6261 66.3684 48.3316 67.268 45.1247 68.3937C38.7521 70.6305 32.4112 72.9622 25.7323 74.1414C24.5385 74.3529 23.7921 74.9462 23.3398 76.0232C21.8616 79.5438 20.3469 83.0498 18.9099 86.5874C18.5088 87.5721 18.3216 88.6444 18.0371 89.6752C18.1976 89.7774 18.3605 89.877 18.5209 89.9792C18.679 89.7044 18.803 89.4005 18.9999 89.1574C23.1964 83.9227 28.6621 80.5383 34.9325 78.3841C38.7375 77.0785 42.6496 76.1789 46.6734 75.9138C50.9623 75.6318 55.2561 75.43 59.5474 75.2209C59.9996 75.199 60.4616 75.3546 60.9333 75.43C60.8701 75.6634 60.8676 75.7242 60.8506 75.7291C60.4519 75.8482 60.0483 75.9552 59.652 76.0767C55.774 77.2657 52.1853 79.0576 48.6744 81.0853C43.5322 84.0564 38.4701 87.1248 33.7995 90.8131C28.5162 94.9853 22.8511 98.4767 16.3789 100.534C16.0458 100.641 15.7054 101.071 15.5839 101.423C15.3553 102.095 15.2386 102.814 15.1559 103.522C14.5578 108.744 14.4411 113.974 14.9371 119.211C14.9906 119.775 15.1657 120.327 15.2848 120.884C16.0993 118.457 16.5783 116.026 17.439 113.741C20.3833 105.919 25.4503 99.7629 32.5571 95.3646C38.6184 91.613 45.2535 89.2862 52.2534 88.09C56.9751 87.2828 61.7551 86.8184 66.4986 86.1279C68.4948 85.8362 70.4569 85.3231 72.4457 84.9657C74.1914 84.6521 75.9517 84.4138 77.7047 84.1439C77.7412 84.229 77.7776 84.3117 77.8141 84.3968C77.0531 84.8101 76.3237 85.2988 75.5286 85.6271C70.5176 87.6913 65.4653 89.6631 60.4762 91.7808C55.5916 93.8547 50.7192 95.9651 45.927 98.2384C39.9824 101.059 34.4268 104.523 29.8972 109.379C25.0199 114.606 21.4993 120.748 18.4334 127.15C17.5265 129.044 16.7436 131.064 17.3369 133.269C18.6498 138.147 20.2812 142.909 22.5156 147.451C23.0481 148.533 23.6292 149.593 24.1884 150.663C24.3124 150.627 24.4364 150.588 24.558 150.551C24.558 150.026 24.5434 149.501 24.5604 148.978C24.6649 145.861 24.6795 142.739 24.9081 139.632C25.3019 134.276 26.9577 129.287 29.6054 124.616C32.5644 119.396 36.5275 115.056 41.3658 111.569C43.7753 109.834 46.3744 108.311 49.0319 106.982C53.2429 104.874 57.5902 103.035 61.8523 101.027C63.671 100.171 65.4264 99.1769 67.4225 98.1315H67.4323ZM13.0285 104.993C13.1574 104.587 13.2376 104.402 13.2741 104.207C14.0862 99.882 14.9225 95.5615 15.669 91.2264C15.7638 90.6745 15.5279 89.95 15.2094 89.4564C12.1289 84.6788 10.32 79.4271 9.69271 73.8277C9.04598 68.0703 9.68299 62.3883 11.7521 56.9396C14.0011 51.0217 16.3497 45.1476 20.0794 39.9543C20.9328 38.7653 21.8008 37.5886 22.6615 36.4045C22.7563 36.4434 22.8487 36.4847 22.9435 36.5236C18.0176 51.2017 16.9989 66.2347 18.679 81.7758C18.9732 81.2093 19.1725 80.8762 19.3233 80.5237C20.0916 78.7172 20.731 76.845 21.6379 75.1139C22.7296 73.0303 24.0863 71.0852 25.2436 69.0331C25.5742 68.4472 25.7566 67.6935 25.7469 67.02C25.725 65.7703 25.4259 64.5279 25.3895 63.2781C25.2387 58.0653 25.8417 52.9279 26.9723 47.8415C28.2876 41.9237 30.6947 36.4969 34.3903 31.695C37.0259 28.2717 39.8219 24.9723 42.5377 21.6098C42.8733 21.1965 43.1553 20.7394 43.4616 20.3017C43.396 20.202 43.3304 20.1023 43.2647 20.0027C42.8489 20.0027 42.4332 20.0027 42.0174 20.0027C30.0649 19.9954 18.1149 19.9881 6.1624 19.9832C4.76681 19.9832 4.75222 19.9881 4.75222 21.4517C4.74979 40.0807 4.74979 58.7096 4.75709 77.3386C4.75709 78.0534 4.7425 78.7974 4.92485 79.4758C5.77825 82.6535 6.63165 85.8313 7.60905 88.9726C9.187 94.0517 10.8598 99.104 12.5058 104.164C12.5836 104.404 12.7805 104.606 13.0285 104.995V104.993ZM44.8183 49.4487C44.8743 49.5459 44.9277 49.6432 44.9837 49.7404C45.273 49.6602 45.5648 49.5921 45.8492 49.4997C48.2222 48.7363 50.5782 47.9169 52.9706 47.2143C57.6096 45.8478 62.4067 45.2911 67.1964 45.1233C71.8087 44.9628 76.4647 45.0941 81.0575 45.5512C89.487 46.3925 97.8848 47.5668 106.297 48.6074C108.454 48.8749 110.603 49.2055 112.765 49.4219C117.005 49.845 121.252 50.217 125.498 50.5938C126.813 50.7105 126.9 50.6133 126.918 49.276C126.969 45.0406 127.007 40.8052 127.063 36.5723C127.088 34.8071 127.063 34.7172 125.279 34.8339C121.415 35.0843 117.547 35.3007 113.701 35.7067C109.82 36.1152 105.954 36.6841 102.098 37.2798C99.2148 37.7247 96.375 38.4906 93.4817 38.8164C89.4967 39.2613 85.4826 39.6431 81.4781 39.6601C74.7774 39.6893 68.0766 39.4048 61.3758 39.2711C60.9989 39.2638 60.5759 39.3391 60.2428 39.5118C55.9174 41.7437 51.6723 44.1167 47.8137 47.1121C46.8145 47.8877 45.82 48.6682 44.8232 49.4462L44.8183 49.4487ZM53.384 41.0581C53.4618 41.1213 53.5371 41.1821 53.6149 41.2453C55.312 40.3457 57.0139 39.451 58.7062 38.5417C59.4575 38.1381 60.447 37.8779 60.8798 37.2458C61.9399 35.7018 63.3889 34.7147 64.9426 33.8443C70.9504 30.4793 77.0263 27.2359 83.6809 25.3103C87.0775 24.328 90.5179 23.4552 93.9825 22.7525C96.7859 22.186 99.6476 21.8699 102.497 21.5855C107.112 21.1284 111.731 20.9971 116.305 22.0182C119.519 22.7355 122.731 23.4625 125.938 24.2186C126.818 24.4253 127.161 24.1505 127.08 23.2655C127.022 22.6236 126.956 21.9745 126.973 21.3326C126.998 20.3212 126.577 19.9735 125.549 19.9759C107.856 20.0051 90.1629 19.9929 72.47 20.0343C71.8306 20.0343 71.0379 20.3528 70.576 20.7953C64.3761 26.7156 58.9031 33.2681 53.8629 40.1901C53.6709 40.4551 53.542 40.7688 53.384 41.0581ZM6.69001 169.635C10.8306 169.579 14.9444 169.399 19.0607 170.26C23.7191 171.235 28.3557 172.241 32.8561 173.805C35.02 174.558 37.162 175.407 39.5156 175.283C39.9411 175.261 40.3617 175.147 40.9379 175.049C40.6875 174.726 40.5927 174.578 40.4735 174.456C38.0422 171.981 35.6157 169.499 33.1625 167.045C32.912 166.795 32.4939 166.571 32.1559 166.571C28.8128 166.583 25.6423 165.703 22.5083 164.702C16.1406 162.667 10.2179 159.846 5.60076 154.806C5.433 154.621 5.17528 154.519 4.84218 154.3C4.80328 154.789 4.75466 155.105 4.75466 155.421C4.76681 161.59 4.80571 167.758 4.7814 173.926C4.77654 174.989 5.20202 175.307 6.17456 175.302C9.79726 175.28 13.4175 175.302 17.0402 175.283C17.3831 175.283 17.7234 175.125 18.3483 174.972C14.4825 172.628 10.6045 171.137 6.6973 169.635H6.69001ZM33.3959 57.1001C33.4713 57.1609 33.5491 57.2217 33.6244 57.2825C33.9575 57.0223 34.3101 56.7865 34.6188 56.502C37.2034 54.0852 39.7903 51.6709 42.3432 49.2226C42.6471 48.9308 42.8222 48.4518 42.9438 48.0263C43.5905 45.77 44.016 43.4287 44.8621 41.2502C47.7019 33.9367 51.7161 27.287 56.6517 21.1892C56.8559 20.9387 56.9143 20.5692 57.0407 20.2555C56.71 20.1704 56.3818 20.0148 56.0511 20.0148C52.8223 19.9954 49.5935 20.0537 46.3647 19.9759C45.1709 19.9467 44.5655 20.4646 44.2227 21.4809C42.8368 25.5899 41.3366 29.6648 40.1161 33.8224C39.1533 37.1023 38.6087 40.5038 37.7456 43.8177C36.9456 46.8909 36.0169 49.9325 35.0565 52.9595C34.6091 54.3746 33.9527 55.7215 33.391 57.1001H33.3959ZM28.6888 162.124C28.7642 162.039 28.8371 161.957 28.9125 161.872C28.8031 161.66 28.7204 161.431 28.5818 161.244C27.8014 160.174 26.8872 159.185 26.2453 158.04C24.3367 154.643 22.4159 151.247 20.7383 147.736C19.8168 145.81 18.7786 144.31 16.8214 143.228C12.6006 140.894 9.36448 137.373 6.31558 133.687C5.93143 133.223 5.49135 132.802 5.07802 132.362C4.78869 132.948 4.74979 133.366 4.74736 133.785C4.74007 136.046 4.96132 138.334 4.69144 140.561C4.31458 143.678 5.78555 145.752 7.92999 147.607C8.30928 147.935 8.67884 148.283 9.09217 148.56C11.8226 150.388 14.5992 152.151 17.2955 154.03C20.6654 156.379 23.9744 158.818 27.3127 161.213C27.76 161.534 28.2293 161.82 28.6864 162.124H28.6888ZM15.3091 134.801C15.421 134.762 15.5328 134.726 15.6471 134.687C15.5814 134.181 15.5498 133.67 15.4477 133.172C15.0198 131.066 14.4557 128.98 14.1542 126.858C13.6898 123.6 13.4224 120.313 13.0139 117.045C12.9483 116.517 12.71 115.89 12.3332 115.545C9.61248 113.045 7.54827 110.057 5.67614 106.911C5.49622 106.61 5.24336 106.352 4.8276 105.822C4.78626 106.648 4.74493 107.108 4.74493 107.568C4.74007 110.439 4.77411 113.308 4.72548 116.177C4.70603 117.242 5.07559 118.071 5.63237 118.956C8.37006 123.308 11.0348 127.704 13.7166 132.09C14.2636 132.982 14.7767 133.894 15.3067 134.796L15.3091 134.801Z" fill="#FFFCF9"/>
<path d="M113.445 159.722C116.992 159.552 119.234 162.958 119.115 165.65C118.974 168.784 116.394 171.237 113.173 171.149C110.009 171.062 107.488 168.434 107.581 165.28C107.673 162.17 110.457 159.445 113.445 159.722Z" fill="#FFFCF9"/>
</svg>
