<svg width="100" height="100" viewBox="0 0 100 100" fill="none" xmlns="http://www.w3.org/2000/svg">
<path d="M64.0625 43.75C64.0639 41.3403 63.446 38.9707 62.2682 36.8685C61.0904 34.7662 59.3921 33.0019 57.3363 31.7448C55.2805 30.4877 52.9361 29.78 50.5281 29.6895C48.1201 29.599 45.7293 30.1288 43.5849 31.228C41.4406 32.3273 39.6147 33.9591 38.2824 35.967C36.9501 37.9749 36.1561 40.2915 35.9766 42.6945C35.7971 45.0975 36.2381 47.5063 37.2573 49.6898C38.2765 51.8734 39.8397 53.7584 41.7969 55.1641L36.0703 68.1211C35.9658 68.3589 35.9222 68.619 35.9434 68.8778C35.9647 69.1367 36.0501 69.3862 36.192 69.6038C36.334 69.8213 36.5279 70 36.7563 70.1238C36.9846 70.2475 37.2403 70.3124 37.5 70.3125H62.5C62.7598 70.3124 63.0154 70.2475 63.2438 70.1238C63.4721 70 63.6661 69.8213 63.808 69.6038C63.9499 69.3862 64.0354 69.1367 64.0566 68.8778C64.0779 68.619 64.0343 68.3589 63.9297 68.1211L58.2031 55.1641C60.0117 53.8593 61.4855 52.1448 62.504 50.1609C63.5224 48.177 64.0565 45.9801 64.0625 43.75ZM54.8203 55.207L60.1016 67.1875H39.8985L45.1797 55.207C45.3342 54.855 45.3535 54.4583 45.2339 54.0929C45.1142 53.7275 44.8641 53.4191 44.5313 53.2266C42.4461 52.0227 40.8165 50.1645 39.8951 47.94C38.9737 45.7156 38.812 43.2493 39.4352 40.9236C40.0584 38.5979 41.4315 36.5428 43.3417 35.0771C45.2519 33.6114 47.5923 32.8169 50 32.8169C52.4077 32.8169 54.7482 33.6114 56.6583 35.0771C58.5685 36.5428 59.9417 38.5979 60.5648 40.9236C61.188 43.2493 61.0263 45.7156 60.1049 47.94C59.1836 50.1645 57.5539 52.0227 55.4688 53.2266C55.136 53.4191 54.8858 53.7275 54.7662 54.0929C54.6465 54.4583 54.6658 54.855 54.8203 55.207Z" fill="#E9E9E9"/>
</svg>
